<?xml version="1.0" encoding="UTF-8" standalone="no"?>
<!-- Created with Inkscape (http://www.inkscape.org/) -->

<svg
   xmlns:dc="http://purl.org/dc/elements/1.1/"
   xmlns:cc="http://creativecommons.org/ns#"
   xmlns:rdf="http://www.w3.org/1999/02/22-rdf-syntax-ns#"
   xmlns:svg="http://www.w3.org/2000/svg"
   xmlns="http://www.w3.org/2000/svg"
   xmlns:xlink="http://www.w3.org/1999/xlink"
   xmlns:sodipodi="http://sodipodi.sourceforge.net/DTD/sodipodi-0.dtd"
   xmlns:inkscape="http://www.inkscape.org/namespaces/inkscape"
   version="1.0"
   width="542.99786"
   height="120.76661"
   id="svg2424"
   inkscape:version="0.91 r13725"
   sodipodi:docname="archlogo.svg">
  <metadata
     id="metadata34">
    <rdf:RDF>
      <cc:Work
         rdf:about="">
        <dc:format>image/svg+xml</dc:format>
        <dc:type
           rdf:resource="http://purl.org/dc/dcmitype/StillImage" />
        <dc:title></dc:title>
      </cc:Work>
    </rdf:RDF>
  </metadata>
  <sodipodi:namedview
     pagecolor="#000000"
     bordercolor="#666666"
     borderopacity="1"
     objecttolerance="10"
     gridtolerance="10"
     guidetolerance="10"
     inkscape:pageopacity="0"
     inkscape:pageshadow="2"
     inkscape:window-width="1380"
     inkscape:window-height="809"
     id="namedview32"
     showgrid="false"
     inkscape:zoom="3.2"
     inkscape:cx="102.45322"
     inkscape:cy="60.448395"
     inkscape:window-x="0"
     inkscape:window-y="0"
     inkscape:window-maximized="0"
     inkscape:current-layer="layer3"
     fit-margin-bottom="2"
     fit-margin-top="2"
     fit-margin-left="8"
     fit-margin-right="0" />
  <defs
     id="defs2426">
    <linearGradient
       x1="112.49854"
       y1="6.1372099"
       x2="112.49853"
       y2="129.3468"
       id="path1082_2_"
       gradientUnits="userSpaceOnUse"
       gradientTransform="translate(287,-83)">
      <stop
         id="stop193"
         style="stop-color:#ffffff;stop-opacity:0"
         offset="0" />
      <stop
         id="stop195"
         style="stop-color:#ffffff;stop-opacity:0.27450982"
         offset="1" />
      <midPointStop
         offset="0"
         style="stop-color:#FFFFFF"
         id="midPointStop197" />
      <midPointStop
         offset="0.5"
         style="stop-color:#FFFFFF"
         id="midPointStop199" />
      <midPointStop
         offset="1"
         style="stop-color:#000000"
         id="midPointStop201" />
    </linearGradient>
    <linearGradient
       x1="541.33502"
       y1="104.50665"
       x2="606.91248"
       y2="303.14029"
       id="linearGradient2544"
       xlink:href="#path1082_2_"
       gradientUnits="userSpaceOnUse"
       gradientTransform="matrix(-0.3937741,0,0,0.393752,357.51969,122.00151)" />
    <linearGradient
       id="linearGradient3388">
      <stop
         id="stop3390"
         style="stop-color:#000000;stop-opacity:0"
         offset="0" />
      <stop
         id="stop3392"
         style="stop-color:#000000;stop-opacity:0.37113401"
         offset="1" />
    </linearGradient>
    <linearGradient
       x1="490.72305"
       y1="237.72447"
       x2="490.72305"
       y2="183.9644"
       id="linearGradient4416"
       xlink:href="#linearGradient3388"
       gradientUnits="userSpaceOnUse"
       gradientTransform="matrix(0.749107,0,0,0.749107,-35.459862,91.44108)" />
  </defs>
  <g
     inkscape:groupmode="layer"
     id="layer3"
     inkscape:label="Layer 2"
     transform="translate(-44.708634,-32.057712)">
    <path
       style="fill:#ffffff;fill-rule:evenodd;stroke:#000000;stroke-width:0.97516751px;stroke-linecap:butt;stroke-linejoin:miter;stroke-opacity:1"
       d="M 61.62264,122.50961 56.403366,68.516247 99.89736,43.206862 l 42.6241,59.055238 -5.21928,25.30938 z"
       id="path4162"
       inkscape:connector-curvature="0" />
    <path
       style="fill:#1793d1;fill-opacity:1;stroke:none"
       id="path3392"
       d="m 82.666264,45.760987 c -11.38107,6.5841 -22.78567,13.14467 -25.32525,14.60259 l -4.63238,2.65715 0,29.275719 0,29.275684 25.37228,14.62609 25.395796,14.6261 25.3958,-14.6261 25.37227,-14.62609 0,-29.275684 0,-29.275719 -11.21647,-6.443 c -6.16083,-3.55073 -17.35379,-9.99373 -24.85496,-14.32041 -7.50116,-4.3267 -13.89714,-7.99497 -14.22635,-8.15958 -0.56435,-0.25866 -1.81062,0.42327 -21.280736,11.66325 z m 21.821576,10.60511 c 0.70544,1.64602 1.31682,3.0804 3.45665,8.06551 0.47029,1.1052 1.48142,3.36259 1.88116,4.23262 0.25867,0.51734 0.94059,1.99874 1.55197,3.29206 2.02227,4.32669 7.61874,15.40208 10.46401,20.739899 0.51732,0.94058 1.31683,2.49255 1.83415,3.40963 0.49381,0.94058 1.4579,2.77473 2.13983,4.068024 0.68192,1.29329 1.55196,2.91579 1.9282,3.59771 0.37622,0.70544 0.63489,1.31683 0.56434,1.38738 -0.0705,0.0704 -1.01113,-0.25867 -2.06929,-0.75247 -1.76359,-0.82302 -4.89104,-2.02226 -4.89104,-1.88117 0,0.0234 0.65841,0.44677 1.48142,0.9641 2.46904,1.52844 7.52468,5.36133 8.04201,6.16082 0.16461,0.21164 0.84652,1.45791 1.52846,2.75122 1.36383,2.58661 2.13982,3.99748 3.26852,6.04326 0.42327,0.77597 0.6349,1.36384 0.4703,1.36384 -0.1411,0 -1.22276,-0.54084 -2.42201,-1.22276 -6.56058,-3.6918 -12.58033,-6.51356 -17.42434,-8.13606 -1.69305,-0.56435 -4.74996,-1.41088 -5.40837,-1.52844 -0.3292,-0.0469 -0.44677,-0.21165 -0.39974,-0.51733 0.0471,-0.25867 0.14109,-1.57549 0.21163,-2.93933 0.28218,-5.549444 -1.83414,-10.534524 -5.22025,-12.298124 -1.81062,-0.91708 -4.11506,-0.37625 -5.784595,1.41087 -1.17573,1.24628 -1.716566,2.23389 -2.445526,4.42075 -0.54083,1.598994 -0.6584,2.304424 -0.68192,4.702904 0,1.55197 0.0235,3.33907 0.094,3.9975 0.11758,1.10518 0.094,1.17573 -0.47029,1.24627 -0.75247,0.0941 -3.71531,0.89355 -5.52594,1.50493 -4.938065,1.66953 -10.863745,4.44426 -17.424335,8.13606 -2.53957,1.4344 -2.89229,1.50493 -2.2574,0.44679 0.25866,-0.39976 0.7995,-1.38738 1.22276,-2.16336 1.71657,-3.17447 2.21037,-4.06803 3.17448,-5.76108 0.54084,-0.96411 1.43439,-2.61012 1.99874,-3.64477 0.56435,-1.03465 1.41088,-2.56309 1.88117,-3.40961 0.47029,-0.84653 1.38736,-2.49255 1.99874,-3.64475 0.61139,-1.175744 1.41088,-2.657154 1.7636,-3.292054 2.0928,-3.78585 4.4913,-8.34768 7.712795,-14.696659 1.99874,-3.95043 3.71531,-7.26601 3.80937,-7.36006 0.094,-0.0941 0.68192,0.23514 1.31682,0.72895 0.63489,0.51732 1.48141,1.10518 1.85765,1.31682 0.39975,0.21163 1.081676,0.61138 1.528446,0.89356 0.44677,0.25866 1.199255,0.6349 1.646025,0.82301 0.7995,0.30569 0.77599,0.30569 -0.35272,-0.68193 -1.928195,-1.64602 -5.055641,-4.72643 -5.055641,-4.96157 0,-0.11758 0.58787,-1.55198 1.31682,-3.198 0.72895,-1.6225 1.693046,-3.85639 2.139826,-4.96159 0.42326,-1.10518 0.94058,-2.32795 1.128705,-2.75122 0.18812,-0.39974 0.35272,-0.79948 0.35272,-0.87003 0,-0.0705 0.21163,-0.58786 0.47029,-1.1522 0.37624,-0.82303 1.19925,-2.8688 2.13984,-5.2908 0.11757,-0.28218 0.28217,-0.51733 0.39975,-0.51733 0.11757,0 0.58786,0.87005 1.05815,1.92821 z"
       inkscape:connector-curvature="0" />
  </g>
  <g
     transform="translate(-79.485947,-161.86029)"
     id="layer1">
    <g
       transform="matrix(0.8746356,0,0,0.8746356,14.730518,23.408954)"
       id="g2424">
      <g
         transform="matrix(0.6378586,0,0,0.6378586,36.486487,2.17139)"
         id="g2809"
         style="fill:#ffffff;fill-opacity:1">
        <path
           d="m 339.96875,309.09375 c -14.47141,-0.0239 -26.4812,2.94367 -31.125,4.5625 l -4.78125,25.8125 c -0.0116,0.0951 23.79543,-6.34855 34.28125,-5.96875 17.36158,0.62381 18.95948,6.63541 18.65625,14.75 0.29595,0.47462 -4.47933,-7.33192 -19.5,-7.59375 -18.94961,-0.32687 -45.69284,6.70947 -45.65625,35.3125 -0.51086,32.17412 24.03361,41.63882 40.75,41.8125 15.02821,-0.27364 22.0777,-5.69136 25.9375,-8.59375 5.07124,-5.30236 10.87308,-10.63447 16.40625,-17.03125 -5.23567,9.51278 -9.77472,16.0898 -14.5,21.125 l 0,4.25 22.84375,-3.84375 0.15625,-62.09375 c -0.23141,-8.78839 5.04123,-42.41827 -43.46875,-42.5 z m -3.28125,54.0625 c 9.46889,0.12995 20.32788,4.79708 20.34375,16.03125 0.049,10.21821 -12.80005,15.71183 -21.15625,15.625 -8.35976,-0.0868 -19.45093,-6.56982 -19.5,-16.53125 0.16016,-8.90444 10.45953,-15.35418 20.3125,-15.125 z"
           id="path2284"
           style="fill:#ffffff;fill-opacity:1;fill-rule:evenodd;stroke:none"
           inkscape:connector-curvature="0" />
        <path
           d="m 398.50106,314.83145 -0.15505,102.82693 26.61213,-5.12724 0.0449,-58.30157 c 0.006,-8.68089 12.40554,-18.82451 27.9627,-18.66287 3.30202,-5.97408 9.5087,-21.24219 11.02088,-24.71514 -34.75649,-0.0833 -35.19897,9.98993 -41.24398,14.94517 -0.0631,-9.45285 -0.0213,-15.12741 -0.0213,-15.12741 l -24.2202,4.16213 z"
           id="path2286"
           style="fill:#ffffff;fill-opacity:1;fill-rule:evenodd;stroke:none"
           inkscape:connector-curvature="0" />
        <path
           d="m 548.2688,328.33058 c -0.25696,-0.12068 -13.87938,-15.93419 -41.26638,-16.0589 -25.65249,-0.42638 -54.42578,9.51895 -54.88631,52.5328 0.22457,37.81852 27.6402,52.59809 55.0314,52.88627 29.31292,0.30451 40.97654,-18.32947 41.67615,-18.79124 -3.49762,-3.0321 -16.59792,-16.0131 -16.59792,-16.0131 0,0 -8.18236,11.65102 -24.05802,11.79913 -15.87942,0.1512 -29.68245,-12.27325 -29.87805,-29.60905 -0.20349,-17.33595 12.68881,-26.72821 29.99725,-27.48687 14.98466,-0.003 23.6297,9.67334 23.6297,9.67334 l 16.35218,-18.93238 z"
           id="path2288"
           style="fill:#ffffff;fill-opacity:1;fill-rule:evenodd;stroke:none"
           inkscape:connector-curvature="0" />
        <path
           d="m 581.8125,278.84375 -25.125,5.90625 0.1875,133.9375 24.75,-4.46875 0.28125,-63.03125 c 0.0529,-6.60927 9.56127,-16.75916 25.4375,-16.4375 15.17973,0.15775 18.57236,10.11767 18.53125,11.375 l 0.4375,72.96875 24.40625,-4.3125 0.0937,-77.375 c 0.1607,-7.44539 -16.30833,-23.16954 -42.78125,-23.28125 -12.58087,0.0202 -19.54815,2.86825 -23.09375,4.96875 -6.06656,4.68565 -12.9998,9.17543 -19.8125,14.90625 6.29809,-8.09099 11.58551,-13.68516 16.75,-17.84375 l -0.0625,-37.3125 z"
           id="path2290"
           style="fill:#ffffff;fill-opacity:1;fill-rule:evenodd;stroke:none"
           inkscape:connector-curvature="0" />
      </g>
      <g
         transform="matrix(0.9443373,0,0.01336345,0.9443373,78.345657,-412.48879)"
         id="g5326"
         style="fill:#1793d1;fill-opacity:1;stroke:none">
        <path
           d="m 400.67581,629.79609 7.68167,-1.91575 -0.92851,91.20792 -7.79574,1.32426 1.04258,-90.61643 z"
           id="path2292"
           style="fill:#1793d1;fill-opacity:1;fill-rule:evenodd;stroke:none"
           inkscape:connector-curvature="0" />
        <path
           d="m 421.10266,657.01757 6.75064,-2.9867 -0.86808,65.39931 -6.49779,1.33915 0.61523,-63.75176 z m -1.26059,-23.58316 5.47167,-4.41533 4.42261,4.99952 -5.47558,4.53221 -4.4187,-5.1164 z"
           id="path2294"
           style="fill:#1793d1;fill-opacity:1;fill-rule:evenodd;stroke:none"
           inkscape:connector-curvature="0" />
        <path
           d="m 440.44273,655.82614 7.67755,-1.56201 -0.1573,13.6722 c -0.007,0.58717 4.4194,-15.27364 24.68502,-14.92094 19.67986,0.10952 22.68401,15.34634 22.5291,18.76237 l -0.43759,48.0783 -6.73044,1.45631 0.63316,-47.489 c 0.0974,-1.38684 -2.88144,-13.11441 -16.78906,-13.15754 -13.90509,-0.0404 -23.68364,10.10048 -23.75821,16.57937 l -0.48127,41.83477 -7.80388,2.0313 0.63292,-65.28513 z"
           id="path2296"
           style="fill:#1793d1;fill-opacity:1;fill-rule:evenodd;stroke:none"
           inkscape:connector-curvature="0" />
        <path
           d="m 561.53301,720.20203 -7.6776,1.56186 0.15737,-13.67198 c 0.007,-0.58742 -4.42201,15.27361 -24.68504,14.92086 -19.67983,-0.10944 -22.68399,-15.34626 -22.52908,-18.76229 l 0.43757,-48.07861 8.15674,-1.64226 -0.54644,47.48988 c -0.0149,1.29682 1.36845,13.29979 15.27604,13.3426 13.90511,0.0405 23.76622,-8.37359 24.01453,-21.04416 l 0.43105,-37.46902 7.5978,-1.93195 -0.63294,65.28507 z"
           id="path2298"
           style="fill:#1793d1;fill-opacity:1;fill-rule:evenodd;stroke:none"
           inkscape:connector-curvature="0" />
        <path
           d="m 577.45461,655.28678 -5.42715,4.20017 20.19894,26.93328 -22.39092,31.11622 5.63499,4.226 21.04365,-28.8967 20.8779,29.58159 5.32727,-4.20103 -22.37578,-31.62866 18.56963,-25.5775 -5.53193,-4.73429 -16.92109,23.66778 -19.00551,-24.68686 z"
           id="path2300"
           style="fill:#1793d1;fill-opacity:1;fill-rule:evenodd;stroke:none"
           inkscape:connector-curvature="0" />
      </g>
      <g
         id="text2634"
         style="font-style:normal;font-weight:normal;font-size:8.44138241px;font-family:'DejaVu Sans Mono';fill:#ffffff;fill-opacity:1;stroke:none">
        <path
           d="m 685.46692,263.83624 0,-5.32944 -1.99082,0 0,-0.71307 4.7895,0 0,0.71307 -1.99906,0 0,5.32944 -0.79962,0"
           id="path3660"
           style="fill:#ffffff;fill-opacity:1"
           inkscape:connector-curvature="0" />
        <path
           d="m 689.0982,263.83624 0,-6.04251 1.20355,0 1.43026,4.2784 c 0.13189,0.39843 0.22806,0.69658 0.28852,0.89442 0.0687,-0.21983 0.17586,-0.5427 0.3215,-0.96862 l 1.44674,-4.2042 1.07578,0 0,6.04251 -0.77077,0 0,-5.05741 -1.75587,5.05741 -0.72131,0 -1.74763,-5.14396 0,5.14396 -0.77077,0"
           id="path3662"
           style="fill:#ffffff;fill-opacity:1"
           inkscape:connector-curvature="0" />
      </g>
      <g
         id="text2638"
         style="font-style:normal;font-weight:normal;font-size:8.25130367px;font-family:'DejaVu Sans Mono';fill:#ffffff;fill-opacity:1;stroke:none" />
    </g>
  </g>
  <g
     style="fill:#1793d1;fill-opacity:1;stroke:none"
     id="g3390"
     transform="matrix(0.036,0,0,-0.036,-40.784458,143.64857)" />
</svg>
